<?xml version="1.0" encoding="UTF-8"?>
<svg id="Layer_1" xmlns="http://www.w3.org/2000/svg" version="1.1" viewBox="0 0 97.8 89.8">
  <defs>
    <style>
      .st0 {
        fill: currentColor;
      }
    </style>
  </defs>
  <path class="st0" d="M47,62.5c-9.3,0-16.9-7.6-16.9-16.9s7.6-16.9,16.9-16.9,16.9,7.6,16.9,16.9-7.6,16.9-16.9,16.9M66.6,21.1l-.2.3-.3.4-.4-.3-.3-.3c-5.4-4.1-11.7-6.2-18.4-6.2-16.9,0-30.6,13.7-30.6,30.6s13.7,30.6,30.6,30.6,13.1-2.1,18.4-6.2l.3-.3.3-.3.3.4.2.3c2.3,3.2,5.9,5.4,9.8,5.9l1.1.2V15.1l-1.1.2c-3.9.5-7.5,2.7-9.8,5.9"/>
</svg>
